<svg width="428" height="408" viewBox="0 0 428 408" fill="none" xmlns="http://www.w3.org/2000/svg">
<g clip-path="url(#clip0_57_9725)">
<path d="M215.64 407.775C36.804 407.775 0 325.965 0 204.427C0 82.8899 35.0939 6.10352e-05 215.64 6.10352e-05C396.187 6.10352e-05 427.753 83.6334 427.753 205.932C427.753 328.231 394.477 407.775 215.64 407.775Z" fill="#FBEC2A"/>
<path d="M140.754 135.426C154.699 112.885 187.401 115.063 198.022 135.426" stroke="#292929" stroke-width="17.1935" stroke-miterlimit="10"/>
<path d="M228.892 135.426C242.836 112.885 275.539 115.063 286.16 135.426" stroke="#292929" stroke-width="17.1935" stroke-miterlimit="10"/>
<mask id="path-4-inside-1_57_9725" fill="white">
<path d="M135.399 188.344V218.322C135.399 260.98 170.028 295.539 212.77 295.539C255.513 295.539 290.141 260.98 290.141 218.322V185.93"/>
</mask>
<path d="M118.206 188.344V218.322H152.593V188.344H118.206ZM118.206 218.322C118.206 270.508 160.564 312.733 212.77 312.733V278.346C179.491 278.346 152.593 251.452 152.593 218.322H118.206ZM212.77 312.733C264.976 312.733 307.335 270.508 307.335 218.322H272.948C272.948 251.452 246.049 278.346 212.77 278.346V312.733ZM307.335 218.322V185.93H272.948V218.322H307.335Z" fill="#292929" mask="url(#path-4-inside-1_57_9725)"/>
</g>
<defs>
<clipPath id="clip0_57_9725">
<rect width="427.736" height="407.775" fill="white"/>
</clipPath>
</defs>
</svg>
